<svg xmlns="http://www.w3.org/2000/svg" width="1564.667" height="1564.686" viewBox="0 0 1564.667 1564.686"><g transform="translate(-0.003)"><path d="M346.674,232.29H262.856a30.56,30.56,0,0,0-30.56,30.56v83.818a30.56,30.56,0,0,0,30.56,30.56h83.818a30.56,30.56,0,0,0,30.56-30.56V262.85A30.562,30.562,0,0,0,346.674,232.29Z" transform="translate(477.6 477.594)" fill="rgba(202,236,253,0.2)"/><path d="M269.249,77.437H185.428A30.56,30.56,0,0,0,154.868,108v83.818a30.56,30.56,0,0,0,30.56,30.56h83.821a30.56,30.56,0,0,0,30.56-30.56V108A30.56,30.56,0,0,0,269.249,77.437Z" transform="translate(318.407 159.212)" fill="rgba(202,236,253,0.2)"/><path d="M345.711,691.274H505.868a30.56,30.56,0,0,0,30.56-30.56V340.277a30.56,30.56,0,0,0-30.56-30.56H185.428a30.56,30.56,0,0,0-30.56,30.56V660.711a30.56,30.56,0,0,0,30.56,30.56H345.65C345.671,691.271,345.689,691.274,345.711,691.274Z" transform="translate(318.406 636.786)" fill="rgba(202,236,253,0.2)"/><path d="M424.1,387.144H340.283a30.56,30.56,0,0,0-30.56,30.56v83.818a30.56,30.56,0,0,0,30.56,30.56H424.1a30.56,30.56,0,0,0,30.56-30.56V417.7A30.56,30.56,0,0,0,424.1,387.144Z" transform="translate(636.792 795.978)" fill="rgba(202,236,253,0.2)"/><path d="M583.3,458.991a30.56,30.56,0,0,0,30.56-30.56V108a30.56,30.56,0,0,0-30.56-30.56H262.856A30.56,30.56,0,0,0,232.3,108V428.434a30.56,30.56,0,0,0,30.56,30.56H583.3Z" transform="translate(477.6 159.212)" fill="rgba(202,236,253,0.2)"/><path d="M428.439,536.42A30.56,30.56,0,0,0,459,505.86V185.423a30.56,30.56,0,0,0-30.56-30.56H108a30.56,30.56,0,0,0-30.56,30.56V505.857A30.56,30.56,0,0,0,108,536.417H428.439Z" transform="translate(159.217 318.402)" fill="rgba(202,236,253,0.2)"/><path d="M495.139,454.655h83.79a30.56,30.56,0,0,0,30.56-30.56V340.277a30.56,30.56,0,0,0-30.56-30.56h-83.79a30.56,30.56,0,0,0-30.56,30.56v83.818A30.56,30.56,0,0,0,495.139,454.655Z" transform="translate(955.18 636.786)" fill="rgba(202,236,253,0.2)"/><path d="M108,454.655H191.82a30.56,30.56,0,0,0,30.56-30.56V340.277a30.56,30.56,0,0,0-30.56-30.56H108a30.56,30.56,0,0,0-30.56,30.56v83.818A30.56,30.56,0,0,0,108,454.655Z" transform="translate(159.217 636.786)" fill="rgba(202,236,253,0.2)"/><path d="M495.139,154.864a30.56,30.56,0,0,0-30.56,30.56V505.861a30.56,30.56,0,0,0,30.56,30.56h83.79a30.56,30.56,0,0,0,30.56-30.56V185.424a30.56,30.56,0,0,0-30.56-30.56Z" transform="translate(955.18 318.404)" fill="rgba(202,236,253,0.2)"/><path d="M387.151,351.027a30.56,30.56,0,0,0,30.56,30.56H738.123a30.56,30.56,0,0,0,30.56-30.56V30.56A30.56,30.56,0,0,0,738.123,0H417.711a30.56,30.56,0,0,0-30.56,30.56V351.027Z" transform="translate(795.986)" fill="rgba(202,236,253,0.2)"/><path d="M660.726,613.847a30.56,30.56,0,0,0,30.56-30.56V262.85a30.56,30.56,0,0,0-30.56-30.56H340.283a30.56,30.56,0,0,0-30.56,30.56V583.287a30.56,30.56,0,0,0,30.56,30.56H660.726Z" transform="translate(636.792 477.594)" fill="rgba(202,236,253,0.2)"/><path d="M114.39,154.864H30.563A30.56,30.56,0,0,0,0,185.424v83.818a30.56,30.56,0,0,0,30.56,30.56H114.39a30.56,30.56,0,0,0,30.56-30.56V185.424A30.56,30.56,0,0,0,114.39,154.864Z" transform="translate(0 318.404)" fill="rgba(202,236,253,0.2)"/><path d="M501.532,154.864H417.711a30.56,30.56,0,0,0-30.56,30.56v83.818a30.56,30.56,0,0,0,30.56,30.56h83.821a30.56,30.56,0,0,0,30.56-30.56V185.424A30.562,30.562,0,0,0,501.532,154.864Z" transform="translate(795.986 318.404)" fill="rgba(202,236,253,0.2)"/><path d="M154.869,495.131v83.824a30.56,30.56,0,0,0,30.56,30.56H269.25a30.56,30.56,0,0,0,30.56-30.56V495.131a30.56,30.56,0,0,0-30.56-30.56H185.429A30.56,30.56,0,0,0,154.869,495.131Z" transform="translate(318.409 955.17)" fill="rgba(202,236,253,0.2)"/><path d="M768.684,417.7a30.56,30.56,0,0,0-30.56-30.56H417.711a30.56,30.56,0,0,0-30.56,30.56V738.147a30.56,30.56,0,0,0,30.56,30.56H738.123a30.56,30.56,0,0,0,30.56-30.56Z" transform="translate(795.986 795.978)" fill="rgba(202,236,253,0.2)"/><path d="M232.3,495.133v83.818a30.56,30.56,0,0,0,30.56,30.56H583.3a30.56,30.56,0,0,0,30.56-30.56V495.133a30.56,30.56,0,0,0-30.56-30.56H262.856A30.56,30.56,0,0,0,232.3,495.133Z" transform="translate(477.6 955.174)" fill="rgba(202,236,253,0.2)"/><path d="M0,417.707V738.141a30.56,30.56,0,0,0,30.56,30.56H351.009a30.56,30.56,0,0,0,30.56-30.56V417.707a30.56,30.56,0,0,0-30.56-30.56H30.563A30.562,30.562,0,0,0,0,417.707Z" transform="translate(0 795.984)" fill="rgba(202,236,253,0.2)"/><path d="M114.378,232.29H30.563A30.56,30.56,0,0,0,0,262.85V583.287a30.56,30.56,0,0,0,30.56,30.56h83.815a30.56,30.56,0,0,0,30.56-30.56V262.85A30.562,30.562,0,0,0,114.378,232.29Z" transform="translate(0 477.594)" fill="rgba(202,236,253,0.2)"/><path d="M345.648,144.969H505.866a30.56,30.56,0,0,0,30.56-30.56V30.56A30.56,30.56,0,0,0,505.866,0H185.429a30.56,30.56,0,0,0-30.56,30.56v83.848a30.56,30.56,0,0,0,30.56,30.56Z" transform="translate(318.409)" fill="rgba(202,236,253,0.2)"/><path d="M454.664,114.408V30.56A30.56,30.56,0,0,0,424.1,0H340.283a30.56,30.56,0,0,0-30.56,30.56v83.848a30.56,30.56,0,0,0,30.56,30.56H424.1A30.56,30.56,0,0,0,454.664,114.408Z" transform="translate(636.792)" fill="rgba(202,236,253,0.2)"/><path d="M0,351.027a30.56,30.56,0,0,0,30.56,30.56H351.009a30.56,30.56,0,0,0,30.56-30.56V30.56A30.56,30.56,0,0,0,351.009,0H30.563A30.56,30.56,0,0,0,0,30.56V351.027Z" transform="translate(0)" fill="rgba(202,236,253,0.2)"/></g></svg>